<?xml version="1.0" standalone="no"?>
<!DOCTYPE svg PUBLIC "-//W3C//DTD SVG 20010904//EN"
 "http://www.w3.org/TR/2001/REC-SVG-20010904/DTD/svg10.dtd">
<svg version="1.0" xmlns="http://www.w3.org/2000/svg"
 width="576.000000pt" height="576.000000pt" viewBox="0 0 576.000000 576.000000"
 preserveAspectRatio="xMidYMid meet">
<metadata>
Created by potrace 1.11, written by Peter Selinger 2001-2013
</metadata>
<g transform="translate(0.000000,576.000000) scale(0.100000,-0.100000)"
fill="#000000" stroke="none">
<path d="M2831 5077 c-6 -8 -23 -12 -42 -9 -24 4 -30 1 -27 -12 2 -13 -23 -29
-107 -66 -60 -27 -115 -53 -120 -58 -6 -5 -23 -8 -37 -8 -15 1 -24 -2 -22 -6
2 -4 -13 -14 -33 -24 -21 -9 -74 -34 -118 -54 -44 -20 -114 -52 -155 -70 -41
-19 -121 -55 -178 -82 -56 -26 -104 -48 -107 -48 -2 0 -43 -18 -90 -40 -48
-22 -91 -37 -97 -34 -7 4 -8 2 -4 -4 4 -7 -4 -14 -21 -18 -15 -4 -34 -11 -40
-16 -7 -6 -19 -8 -27 -5 -10 4 -13 1 -10 -7 3 -7 -1 -13 -8 -13 -7 0 -42 -14
-78 -31 -36 -16 -90 -41 -120 -55 -30 -14 -113 -52 -185 -85 -71 -32 -150 -68
-175 -80 -25 -11 -76 -34 -115 -52 -45 -21 -84 -32 -107 -31 -31 2 -38 -2 -38
-17 0 -12 -16 -25 -50 -40 -28 -12 -57 -22 -65 -22 -8 0 -15 -7 -15 -15 0 -17
16 -20 25 -6 5 9 62 41 72 41 2 0 -6 -14 -18 -32 -34 -47 -38 -141 -10 -196
12 -23 19 -42 16 -42 -11 0 -50 23 -56 33 -8 11 -29 1 -29 -14 0 -5 9 -9 20
-9 35 0 110 -43 110 -63 0 -15 6 -17 31 -13 31 5 50 -2 214 -78 39 -18 99 -46
135 -62 36 -15 67 -31 70 -34 3 -3 11 -6 19 -8 7 -1 61 -25 120 -51 58 -27
133 -61 166 -76 33 -15 93 -42 133 -61 41 -19 76 -34 78 -34 2 0 45 -20 96
-44 118 -56 228 -106 233 -106 2 0 41 -17 87 -39 46 -21 103 -48 128 -59 25
-11 92 -41 150 -67 58 -26 147 -67 197 -91 51 -24 97 -44 101 -44 15 0 42 -36
35 -45 -5 -4 9 -6 29 -3 25 3 39 -1 42 -9 5 -11 9 -11 26 -1 16 10 24 10 39 1
15 -10 22 -9 30 1 6 7 23 11 41 8 25 -4 30 -1 30 16 0 14 12 25 38 35 20 8 64
28 97 43 33 15 62 28 65 29 3 1 26 11 51 22 130 59 165 75 180 83 9 4 105 49
215 98 109 49 224 101 254 115 71 32 134 60 140 62 3 0 37 16 75 34 79 38 138
64 145 66 8 2 100 44 142 65 20 10 39 16 42 13 3 -4 6 -1 6 5 0 7 4 12 9 12 5
0 52 20 105 45 53 25 98 45 100 45 2 0 48 20 101 45 145 68 162 74 195 70 24
-3 30 0 30 15 0 11 4 20 8 20 5 0 17 7 28 16 10 8 14 13 7 9 -7 -3 -1 14 12
37 32 56 33 128 3 197 -13 28 -31 54 -40 57 -10 3 -18 14 -18 25 0 15 -7 19
-37 18 -35 -1 -67 11 -230 87 -97 45 -400 182 -628 284 -27 13 -96 44 -152 70
-55 27 -111 51 -122 55 -12 3 -21 10 -21 14 0 4 -8 7 -17 8 -10 1 -61 22 -113
46 -52 25 -115 54 -140 65 -25 11 -90 40 -145 65 -135 60 -206 93 -293 133
-40 19 -76 34 -81 34 -5 0 -11 9 -14 20 -4 14 -14 20 -35 20 -17 0 -34 5 -38
12 -5 8 -10 7 -18 -3 -15 -19 -46 -20 -46 -3 0 18 -14 18 -29 1z"/>
<path d="M5063 4095 c15 -8 27 -20 27 -26 0 -6 6 -9 13 -6 19 6 14 30 -8 32
-11 2 -29 6 -40 9 -11 4 -8 0 8 -9z"/>
<path d="M5074 3862 c-21 -18 -21 -18 16 -17 33 0 37 2 29 18 -12 21 -18 21
-45 -1z"/>
<path d="M1270 3281 c0 -11 -19 -26 -52 -41 -29 -13 -107 -48 -173 -78 -66
-30 -140 -63 -165 -75 -25 -11 -60 -19 -77 -18 -24 2 -33 -2 -33 -13 0 -9 -17
-25 -37 -36 -21 -12 -30 -19 -20 -16 21 7 21 4 -1 -36 -27 -48 -28 -134 -3
-182 25 -49 20 -56 -19 -28 -16 12 -34 22 -40 22 -17 0 -6 -25 11 -26 31 -2
106 -43 111 -61 4 -15 13 -19 38 -17 21 1 64 -12 119 -38 215 -100 298 -138
304 -138 3 0 43 -17 89 -39 45 -21 178 -81 293 -134 116 -52 235 -106 265
-120 30 -14 78 -35 105 -47 115 -52 173 -79 230 -106 33 -15 62 -28 65 -29 3
0 21 -8 40 -17 19 -9 61 -28 92 -42 32 -14 91 -41 130 -59 40 -19 89 -40 108
-47 19 -7 42 -18 50 -25 8 -6 27 -16 43 -23 15 -6 26 -17 25 -24 -2 -9 8 -13
27 -12 17 1 33 -3 37 -10 5 -8 13 -8 28 2 16 10 24 10 40 0 15 -10 22 -10 28
-2 4 7 22 10 40 8 26 -3 32 0 30 13 -4 20 17 31 199 111 78 34 182 81 230 103
48 23 121 57 161 75 40 19 75 34 77 34 2 0 37 15 77 34 103 48 168 77 283 129
55 25 125 56 155 70 30 14 78 35 105 47 28 12 69 31 92 42 23 11 48 16 54 12
7 -4 9 -3 6 3 -3 5 19 22 51 36 31 14 86 39 122 55 125 56 166 75 238 109 40
19 81 33 90 32 36 -3 52 2 52 16 0 17 69 55 99 55 23 0 35 15 25 32 -5 8 -10
7 -18 -3 -12 -15 -70 -44 -64 -32 47 92 50 178 10 233 -27 36 -17 38 31 5 20
-13 39 -20 42 -15 8 13 -4 32 -16 25 -5 -4 -21 1 -36 9 -16 8 -36 17 -46 20
-11 3 -21 15 -24 26 -4 16 -14 20 -49 20 -24 0 -44 5 -44 10 0 6 -7 10 -16 10
-9 0 -33 8 -53 19 -20 10 -56 28 -81 39 -75 34 -173 78 -217 97 -27 12 -43 25
-43 36 0 12 -8 16 -25 15 -16 0 -25 -7 -25 -17 0 -10 -36 -32 -107 -64 -60
-26 -142 -64 -183 -83 -41 -19 -100 -45 -130 -59 -30 -13 -68 -30 -85 -38 -40
-18 -136 -62 -275 -125 -63 -29 -144 -66 -180 -82 -59 -27 -118 -54 -205 -93
-16 -7 -57 -26 -90 -41 -36 -17 -74 -27 -96 -25 -30 1 -37 -2 -35 -16 0 -12
-6 -18 -19 -18 -11 0 -26 -5 -32 -12 -15 -14 -106 -16 -97 -2 3 5 -8 8 -25 7
-18 -1 -31 -8 -31 -16 0 -7 -5 -10 -11 -6 -7 4 -21 8 -33 8 -55 4 -99 20 -103
37 -4 14 -14 19 -42 18 -21 -1 -59 11 -91 26 -30 15 -120 57 -199 92 -80 36
-172 77 -205 93 -34 15 -81 36 -106 47 -183 83 -509 231 -575 262 -44 21 -99
46 -122 56 -26 12 -43 25 -43 36 0 11 -8 17 -25 17 -17 0 -25 -6 -25 -17z"/>
<path d="M643 2987 c-12 -20 14 -27 31 -8 18 19 17 20 -4 18 -12 -1 -24 -5
-27 -10z"/>
<path d="M1280 2201 c-8 -3 -15 -12 -15 -19 0 -7 -90 -53 -200 -103 -110 -49
-207 -93 -215 -98 -8 -4 -30 -6 -48 -3 -27 4 -32 1 -32 -16 0 -11 -8 -23 -18
-26 -23 -8 -54 -79 -60 -139 -5 -47 13 -127 29 -127 4 0 9 -6 12 -14 5 -12 1
-13 -26 -1 -17 7 -33 18 -35 24 -5 14 -32 15 -32 1 0 -6 12 -15 28 -20 70 -26
101 -44 106 -62 4 -16 11 -19 32 -15 18 3 48 -4 83 -20 70 -32 151 -69 216
-98 28 -13 118 -53 200 -90 83 -37 177 -80 210 -95 58 -27 87 -40 205 -93 30
-13 84 -38 120 -55 69 -32 104 -47 270 -122 58 -26 130 -59 160 -73 121 -55
388 -176 437 -197 32 -14 53 -29 56 -42 5 -17 11 -20 36 -15 22 5 31 2 36 -11
6 -16 7 -16 19 1 17 22 42 22 50 0 6 -15 9 -15 16 -3 5 9 22 13 44 12 28 -2
34 1 30 13 -5 11 16 25 80 55 48 22 98 43 111 46 13 3 29 12 36 20 6 8 17 14
24 14 6 0 25 6 41 14 63 31 205 96 209 96 2 0 32 13 67 29 169 79 220 102 308
141 52 23 122 54 155 69 33 16 94 43 135 61 41 19 111 50 155 71 44 20 103 47
130 59 28 13 79 36 115 52 36 17 109 50 162 74 54 24 121 55 150 69 34 16 63
23 85 21 26 -4 33 -1 33 13 0 18 76 61 110 61 26 0 33 15 15 30 -10 8 -15 9
-15 1 0 -6 -18 -20 -40 -31 l-41 -21 25 39 c34 55 32 161 -4 212 l-24 34 47
-26 c26 -15 49 -22 52 -17 9 13 -4 31 -16 23 -17 -10 -109 39 -109 58 0 14 -8
18 -37 17 -26 -1 -66 11 -123 38 -47 22 -107 50 -135 63 -158 69 -205 94 -201
106 3 7 0 15 -7 17 -22 7 -47 -5 -47 -24 0 -11 -4 -19 -10 -19 -8 0 -115 -47
-545 -241 -22 -10 -85 -39 -140 -64 -55 -26 -134 -62 -175 -80 -41 -18 -111
-50 -155 -70 -227 -106 -283 -128 -320 -130 -32 -1 -39 -5 -37 -18 2 -14 -18
-24 -30 -15 -2 1 -12 -3 -23 -9 -11 -6 -37 -13 -57 -17 -29 -5 -38 -4 -38 7 0
9 -9 12 -30 9 -16 -2 -30 -8 -30 -14 0 -9 -58 -3 -90 9 -8 3 -22 7 -30 9 -7 2
-21 12 -30 22 -9 12 -24 18 -38 16 -21 -4 -51 8 -207 81 -83 39 -185 85 -190
85 -2 0 -50 22 -107 49 -57 27 -159 74 -228 104 -69 30 -163 73 -210 95 -47
22 -147 67 -223 101 -163 73 -177 81 -177 102 0 16 -15 20 -40 10z"/>
<path d="M687 1909 c-9 -5 -21 -8 -26 -4 -15 8 -25 -15 -12 -28 8 -8 14 -7 23
5 7 8 22 20 33 26 11 6 16 11 10 11 -5 0 -18 -4 -28 -10z"/>
</g>
</svg>
